<svg xmlns="http://www.w3.org/2000/svg" viewBox="0 0 64 64" fill="none">
  <defs>
    <linearGradient id="tile" x1="0" y1="0" x2="0" y2="64">
      <stop offset="0" stop-color="#0F1D32"/>
      <stop offset="1" stop-color="#07101E"/>
    </linearGradient>
    <radialGradient id="halo" cx="0.5" cy="0.42" r="0.62">
      <stop offset="0" stop-color="#8B5CF6" stop-opacity="0.22"/>
      <stop offset="0.55" stop-color="#8B5CF6" stop-opacity="0.07"/>
      <stop offset="1" stop-color="#8B5CF6" stop-opacity="0"/>
    </radialGradient>
    <linearGradient id="hex" gradientUnits="userSpaceOnUse" x1="12" y1="9" x2="52" y2="55">
      <stop offset="0" stop-color="#36D97D"/>
      <stop offset="0.5" stop-color="#2ECC71"/>
      <stop offset="1" stop-color="#8B5CF6"/>
    </linearGradient>
    <linearGradient id="beamv" gradientUnits="userSpaceOnUse" x1="0" y1="22" x2="0" y2="42">
      <stop offset="0" stop-color="#36D97D"/>
      <stop offset="1" stop-color="#10B981"/>
    </linearGradient>
    <linearGradient id="beamd" gradientUnits="userSpaceOnUse" x1="26" y1="32" x2="40" y2="32">
      <stop offset="0" stop-color="#A78BFA"/>
      <stop offset="1" stop-color="#7C3AED"/>
    </linearGradient>
    <filter id="glow" x="-40%" y="-40%" width="180%" height="180%">
      <feGaussianBlur stdDeviation="1.3" result="b"/>
      <feMerge>
        <feMergeNode in="b"/>
        <feMergeNode in="SourceGraphic"/>
      </feMerge>
    </filter>
  </defs>
  <rect width="64" height="64" rx="14" fill="url(#tile)"/>
  <rect width="64" height="64" rx="14" fill="url(#halo)"/>
  <rect x="0.5" y="0.5" width="63" height="63" rx="13.5" stroke="#F8FAFC" stroke-opacity="0.07"/>
  <g transform="translate(32 32) scale(0.86) translate(-32 -32)">
    <path d="M32 7 L53.65 19.5 V44.5 L32 57 L10.35 44.5 V19.5 Z"
          stroke="url(#hex)" stroke-width="2.8" stroke-linejoin="round" filter="url(#glow)"/>
    <g stroke-width="5" stroke-linecap="round" filter="url(#glow)">
      <path d="M25 21 V43" stroke="url(#beamv)"/>
      <path d="M25 32 L40.5 21" stroke="url(#beamd)"/>
      <path d="M25 32 L40.5 43" stroke="url(#beamd)"/>
    </g>
    <g filter="url(#glow)">
      <circle cx="25" cy="21" r="2.4" fill="#36D97D"/>
      <circle cx="25" cy="43" r="2.4" fill="#36D97D"/>
      <circle cx="40.5" cy="21" r="2.4" fill="#A78BFA"/>
      <circle cx="40.5" cy="43" r="2.4" fill="#A78BFA"/>
      <circle cx="25" cy="32" r="2.7" fill="#F8FAFC"/>
    </g>
  </g>
</svg>
